<svg width="24" height="24" viewBox="0 0 24 24" fill="none" xmlns="http://www.w3.org/2000/svg">
<path opacity="0.4" d="M21 21H4.5C2.958 21 2 20.042 2 18.5V4C2 3.448 2.448 3 3 3C3.552 3 4 3.448 4 4V18.5C4 18.949 4.051 19 4.5 19H21C21.552 19 22 19.448 22 20C22 20.552 21.552 21 21 21Z" fill="inherit"/>
<path d="M7 17C6.448 17 6 16.552 6 16V13C6 12.448 6.448 12 7 12C7.552 12 8 12.448 8 13V16C8 16.552 7.552 17 7 17ZM12 16V9C12 8.448 11.552 8 11 8C10.448 8 10 8.448 10 9V16C10 16.552 10.448 17 11 17C11.552 17 12 16.552 12 16ZM16 16V11C16 10.448 15.552 10 15 10C14.448 10 14 10.448 14 11V16C14 16.552 14.448 17 15 17C15.552 17 16 16.552 16 16ZM20 16V5C20 4.448 19.552 4 19 4C18.448 4 18 4.448 18 5V16C18 16.552 18.448 17 19 17C19.552 17 20 16.552 20 16Z" fill="inherit"/>
</svg>
